<svg width="18" height="20" viewBox="0 0 18 20" fill="none" xmlns="http://www.w3.org/2000/svg">
<path d="M3.06943 3.01343C4.55975 1.55292 6.56623 0.739562 8.65286 0.750101C10.7395 0.76064 12.7377 1.59423 14.2131 3.06971C15.6886 4.5452 16.5222 6.54337 16.5328 8.63C16.5433 10.7166 15.7299 12.7231 14.2694 14.2134L10.0834 18.3994C9.70837 18.7744 9.19976 18.985 8.66943 18.985C8.1391 18.985 7.63048 18.7744 7.25543 18.3994L3.06943 14.2134C1.58432 12.7282 0.75 10.7138 0.75 8.61343C0.75 6.51306 1.58432 4.4987 3.06943 3.01343Z" stroke="white" stroke-opacity="0.8" stroke-width="1.5" stroke-linejoin="round"/>
<path d="M8.67188 11.6133C10.3287 11.6133 11.6719 10.2701 11.6719 8.61328C11.6719 6.95643 10.3287 5.61328 8.67188 5.61328C7.01502 5.61328 5.67188 6.95643 5.67188 8.61328C5.67188 10.2701 7.01502 11.6133 8.67188 11.6133Z" stroke="white" stroke-opacity="0.8" stroke-width="1.5" stroke-linecap="round" stroke-linejoin="round"/>
</svg>
