<svg width="16" height="20" viewBox="0 0 16 20" fill="none" xmlns="http://www.w3.org/2000/svg">
<path d="M1.54109 5.76636C1.25459 3.87936 2.58509 2.18436 4.61759 1.56336C4.97828 1.45382 5.36713 1.48556 5.70529 1.65213C6.04344 1.8187 6.3056 2.10764 6.43859 2.46036L7.09109 4.20036C7.19613 4.48028 7.21513 4.7852 7.14563 5.07599C7.07614 5.36678 6.92134 5.63017 6.70109 5.83236L4.76009 7.60986C4.66429 7.69757 4.59292 7.80865 4.55295 7.93223C4.51298 8.05582 4.5058 8.18766 4.53209 8.31486L4.55009 8.39286L4.59659 8.58786C4.83858 9.53513 5.20635 10.4457 5.69009 11.2954C6.21827 12.1975 6.87292 13.0193 7.63409 13.7359L7.69409 13.7899C7.79099 13.8759 7.90852 13.9353 8.03523 13.9624C8.16194 13.9895 8.2935 13.9832 8.41709 13.9444L10.9266 13.1539C11.2118 13.0643 11.5172 13.062 11.8037 13.1473C12.0903 13.2325 12.3448 13.4015 12.5346 13.6324L13.7226 15.0739C14.2176 15.6739 14.1576 16.5559 13.5891 17.0854C12.0336 18.5359 9.89459 18.8329 8.40659 17.6374C6.58187 16.1669 5.04412 14.3723 3.87059 12.3439C2.68558 10.3181 1.89616 8.08628 1.54109 5.76636ZM6.10409 8.41386L7.71209 6.93786C8.15285 6.53366 8.46274 6.00696 8.60199 5.42537C8.74124 4.84378 8.70349 4.23384 8.49359 3.67386L7.84259 1.93386C7.57552 1.22401 7.04826 0.642448 6.36791 0.307289C5.68756 -0.0278696 4.90515 -0.091488 4.17959 0.129357C1.65509 0.901856 -0.371409 3.16536 0.0575911 5.99286C0.357591 7.96686 1.04909 10.4779 2.57459 13.0999C3.84076 15.287 5.49951 17.2219 7.46759 18.8074C9.69959 20.5999 12.6786 19.9879 14.6136 18.1849C15.1673 17.6693 15.5033 16.962 15.5532 16.2071C15.6031 15.4522 15.3631 14.7068 14.8821 14.1229L13.6941 12.6799C13.314 12.2186 12.8049 11.8813 12.2319 11.7114C11.6589 11.5414 11.0482 11.5464 10.4781 11.7259L8.39459 12.3814C7.85661 11.8267 7.3854 11.2111 6.99059 10.5469C6.60961 9.87518 6.3124 9.15935 6.10559 8.41536" fill="white" fill-opacity="0.8"/>
</svg>
