<svg width="64" height="64" viewBox="0 0 64 64" fill="none" xmlns="http://www.w3.org/2000/svg">
<g clip-path="url(#clip0_124_1359)">
<path d="M1.35511 31.617C1.35362 36.9942 2.75865 42.2447 5.43028 46.8726L1.09961 62.6845L17.2812 58.4417C21.7568 60.8781 26.7714 62.1548 31.8672 62.1552H31.8806C48.703 62.1552 62.3967 48.4664 62.4039 31.6411C62.4072 23.488 59.2349 15.8214 53.4715 10.0535C47.709 4.28601 40.0451 1.10809 31.8794 1.10437C15.0551 1.10437 1.36206 14.7924 1.35511 31.617Z" fill="url(#paint0_linear_124_1359)"/>
<path d="M0.265426 31.6071C0.26369 37.1778 1.71907 42.6161 4.48595 47.4096L0 63.7884L16.7618 59.3935C21.3802 61.9116 26.5801 63.2392 31.8713 63.2412H31.8849C49.3108 63.2412 63.4964 49.06 63.5039 31.6324C63.5069 23.1864 60.2205 15.2442 54.2512 9.26958C48.2811 3.29575 40.3431 0.00347287 31.8849 0C14.4561 0 0.272372 14.1792 0.265426 31.6071ZM10.2477 46.5841L9.62183 45.5906C6.99088 41.4073 5.60223 36.573 5.60422 31.6091C5.60967 17.1235 17.3986 5.33829 31.8948 5.33829C38.915 5.34127 45.5124 8.07789 50.4747 13.0431C55.4366 18.0088 58.1671 24.6097 58.1653 31.6304C58.1589 46.116 46.3697 57.9026 31.8849 57.9026H31.8745C27.1581 57.9002 22.5325 56.6335 18.4985 54.24L17.5385 53.6707L7.59169 56.2786L10.2477 46.5841Z" fill="url(#paint1_linear_124_1359)"/>
<path d="M23.9821 18.3933C23.3902 17.0778 22.7673 17.0513 22.2045 17.0282C21.7436 17.0084 21.2167 17.0099 20.6903 17.0099C20.1634 17.0099 19.3074 17.2081 18.5838 17.9981C17.8594 18.789 15.8184 20.7 15.8184 24.5869C15.8184 28.4738 18.6495 32.2304 19.0442 32.7581C19.4393 33.2847 24.5097 41.5164 32.54 44.6832C39.2138 47.3148 40.572 46.7914 42.0204 46.6595C43.4691 46.528 46.6949 44.7489 47.353 42.9041C48.0116 41.0595 48.0116 39.4783 47.8141 39.1479C47.6167 38.8187 47.0898 38.621 46.2997 38.2261C45.5096 37.8312 41.6252 35.9196 40.9011 35.6559C40.1768 35.3925 39.6502 35.261 39.1233 36.0521C38.5964 36.8419 37.0835 38.621 36.6223 39.1479C36.1617 39.676 35.7005 39.7418 34.9107 39.3466C34.1201 38.9502 31.5758 38.117 28.5571 35.4257C26.2084 33.3316 24.6228 30.7455 24.1619 29.9545C23.701 29.1646 24.1126 28.7365 24.5087 28.3428C24.8637 27.9888 25.299 27.4203 25.6945 26.9591C26.0884 26.4977 26.2198 26.1685 26.4833 25.6417C26.747 25.1143 26.615 24.6529 26.4178 24.2577C26.2198 23.8626 24.6846 19.9553 23.9821 18.3933Z" fill="white"/>
</g>
<defs>
<linearGradient id="paint0_linear_124_1359" x1="3066.32" y1="6159.12" x2="3066.32" y2="1.10437" gradientUnits="userSpaceOnUse">
<stop stop-color="#1FAF38"/>
<stop offset="1" stop-color="#60D669"/>
</linearGradient>
<linearGradient id="paint1_linear_124_1359" x1="3175.19" y1="6378.84" x2="3175.19" y2="0" gradientUnits="userSpaceOnUse">
<stop stop-color="#F9F9F9"/>
<stop offset="1" stop-color="white"/>
</linearGradient>
<clipPath id="clip0_124_1359">
<rect width="63.5039" height="64" fill="white"/>
</clipPath>
</defs>
</svg>
