<svg width="39" height="39" viewBox="0 0 39 39" fill="none" xmlns="http://www.w3.org/2000/svg">
<path fill-rule="evenodd" clip-rule="evenodd" d="M6.35685 3.28898C5.93392 3.17738 5.48911 3.17865 5.06682 3.29267C4.64454 3.40668 4.25953 3.62945 3.95024 3.93875C3.64095 4.24804 3.41818 4.63304 3.30416 5.05533C3.19015 5.47762 3.18887 5.92242 3.30047 6.34535L5.88114 16.1249L0.401306 24.6305C-0.635861 26.2434 0.450306 28.3749 2.36539 28.4831L12.4635 29.0507L18.858 36.8866C19.1345 37.2255 19.4951 37.486 19.9037 37.642C20.3123 37.798 20.7547 37.8441 21.1868 37.7757C21.6188 37.7073 22.0253 37.5268 22.3658 37.2522C22.7062 36.9776 22.9687 36.6186 23.1271 36.2109L25.9793 28.8609L35.3873 38.2689C35.7701 38.652 36.2895 38.8673 36.8311 38.8675C37.3727 38.8677 37.8921 38.6527 38.2752 38.2699C38.6583 37.887 38.8737 37.3677 38.8739 36.8261C38.8741 36.2845 38.6591 35.765 38.2763 35.3819L28.8683 25.9739L36.2162 23.1217C36.6239 22.9634 36.983 22.7009 37.2576 22.3604C37.5322 22.0199 37.7127 21.6134 37.781 21.1814C37.8494 20.7494 37.8033 20.307 37.6473 19.8983C37.4913 19.4897 37.2309 19.1291 36.892 18.8526L29.0561 12.4561L28.4885 2.35798C28.4635 1.92156 28.3246 1.49932 28.0855 1.13335C27.8465 0.767366 27.5157 0.470432 27.1261 0.272137C26.7365 0.0738418 26.3018 -0.0188869 25.8652 0.00319309C25.4287 0.0252731 25.0055 0.161391 24.6379 0.397979L16.1364 5.8676L6.35685 3.28898ZM10.0073 15.7574L7.94118 7.93173L15.7689 9.99585C16.4468 10.1755 17.1695 10.0612 17.7616 9.68144L24.5665 5.29798L25.0218 13.3809C25.0606 14.0812 25.3933 14.7325 25.9364 15.1776L32.2084 20.2961L24.6624 23.2259C24.0091 23.479 23.4905 23.9976 23.2353 24.6509L20.3055 32.199L15.1871 25.927C14.9672 25.6583 14.694 25.4381 14.3848 25.2803C14.0756 25.1225 13.737 25.0306 13.3904 25.0103L5.30743 24.557L9.69089 17.7501C9.87856 17.4579 10.0036 17.1299 10.058 16.787C10.1125 16.444 10.0953 16.0934 10.0073 15.7574Z" fill="url(#paint0_linear_124_938)"/>
<defs>
<linearGradient id="paint0_linear_124_938" x1="-4.47456" y1="32.0805" x2="32.0556" y2="-4.53681" gradientUnits="userSpaceOnUse">
<stop stop-color="#92E9D2"/>
<stop offset="0.5184" stop-color="#DB00FF"/>
<stop offset="1" stop-color="#633F93"/>
</linearGradient>
</defs>
</svg>
