<svg width="45" height="37" viewBox="0 0 45 37" fill="none" xmlns="http://www.w3.org/2000/svg">
<path d="M21.1367 0.751953C21.6802 0.53661 22.2686 0.457469 22.8496 0.521484C23.4306 0.585561 23.9872 0.790678 24.4707 1.11914C24.9542 1.44761 25.3495 1.88975 25.623 2.40625C25.8966 2.92292 26.0401 3.49935 26.04 4.08398C26.0399 5.03372 25.6713 5.89649 25.0674 6.53809L24.7695 6.85352L25.041 7.19336L30.3975 13.8887C30.5416 14.0696 30.7439 14.1961 30.9697 14.2461C31.1955 14.296 31.4317 14.2671 31.6387 14.1641L31.6396 14.1631L37.0498 11.4561L37.3906 11.2852L37.3164 10.9121C37.2138 10.3922 37.2274 9.85581 37.3564 9.3418C37.4855 8.82784 37.7274 8.34919 38.0635 7.93945C38.3996 7.52968 38.8219 7.19883 39.3008 6.97168C39.7794 6.74465 40.3023 6.62619 40.832 6.625C41.7128 6.62527 42.5631 6.95004 43.2197 7.53711C43.8763 8.12425 44.2932 8.93327 44.3916 9.80859C44.4899 10.6839 44.2628 11.565 43.7529 12.2832C43.243 13.0015 42.4858 13.5064 41.627 13.7021L41.3076 13.7754L41.2471 14.0977L37.5635 33.7441C37.4312 34.4483 37.0572 35.0844 36.5059 35.542C35.9543 35.9996 35.2596 36.25 34.543 36.25H10.3701C9.65354 36.25 8.9597 35.9995 8.4082 35.542C7.85669 35.0844 7.48187 34.4484 7.34961 33.7441L3.66699 14.0977L3.60645 13.7754L3.28613 13.7021C2.59937 13.5454 1.97404 13.1898 1.48828 12.6797C1.00243 12.1694 0.677497 11.5268 0.554688 10.833C0.431949 10.1393 0.516723 9.4243 0.797852 8.77832C1.07903 8.13247 1.54448 7.58406 2.13574 7.20117C2.72717 6.8182 3.4185 6.61821 4.12305 6.62598C4.8274 6.63378 5.51397 6.8484 6.09668 7.24414C6.67949 7.64004 7.13255 8.1995 7.39941 8.85156C7.66627 9.50366 7.73573 10.2202 7.59766 10.9111L7.52246 11.2852L7.86328 11.4561L13.2744 14.1631L13.2754 14.1641C13.4823 14.267 13.7187 14.2961 13.9443 14.2461C14.1699 14.1961 14.3706 14.0693 14.5146 13.8887L14.5156 13.8896L19.8721 7.19336L20.1436 6.85449L19.8467 6.53809C19.4462 6.11226 19.1556 5.59495 19.001 5.03125C18.8464 4.46755 18.8318 3.87422 18.959 3.30371C19.0862 2.73309 19.3519 2.20155 19.7314 1.75684C20.1109 1.31235 20.5934 0.967269 21.1367 0.751953ZM21.9844 7.85449L16.125 15.1777C15.6858 15.7263 15.0721 16.108 14.3857 16.2588C13.7852 16.3908 13.1607 16.3396 12.5928 16.1143L12.3535 16.0068L6.60645 13.1338L6.34863 13.0059L6.1084 13.1631L5.9248 13.2832L5.64648 13.4668L5.70801 13.7939L9.37598 33.3633C9.41939 33.5952 9.54301 33.8045 9.72461 33.9551C9.90607 34.1055 10.1344 34.1867 10.3701 34.1865V34.1875H34.543C34.7787 34.1877 35.0069 34.1055 35.1885 33.9551C35.3474 33.8233 35.4624 33.6467 35.5176 33.4492L35.5371 33.3633L39.2061 13.7939L39.2676 13.4668L38.9883 13.2832L38.8047 13.1631L38.5645 13.0059L38.3076 13.1338L32.5596 16.0068C31.9308 16.3211 31.213 16.4106 30.5264 16.2598C29.8397 16.1089 29.2253 15.7267 28.7861 15.1777L22.9287 7.85449L22.7783 7.66699H22.1348L21.9844 7.85449ZM22.457 20.917C23.4073 20.9171 24.3183 21.2949 24.9902 21.9668C25.6622 22.6388 26.04 23.5497 26.04 24.5C26.04 25.4504 25.6622 26.3622 24.9902 27.0342C24.3183 27.706 23.4072 28.0839 22.457 28.084C21.5067 28.084 20.5949 27.7062 19.9229 27.0342C19.2508 26.3622 18.873 25.4504 18.873 24.5C18.8731 23.5498 19.251 22.6387 19.9229 21.9668C20.5949 21.2948 21.5067 20.917 22.457 20.917Z" fill="url(#paint0_linear_124_944)" stroke="black"/>
<defs>
<linearGradient id="paint0_linear_124_944" x1="-5.16984" y1="30.3329" x2="28.672" y2="-11.1187" gradientUnits="userSpaceOnUse">
<stop stop-color="#92E9D2"/>
<stop offset="0.5184" stop-color="#DB00FF"/>
<stop offset="1" stop-color="#633F93"/>
</linearGradient>
</defs>
</svg>
