<svg width="41" height="41" viewBox="0 0 41 41" fill="none" xmlns="http://www.w3.org/2000/svg">
<path d="M20.4207 0C22.8789 0 25.235 0.434875 27.4175 1.22908L24.9777 3.66683C21.2854 2.66282 17.3648 2.90696 13.8256 4.3613C10.2863 5.81563 7.32682 8.39865 5.40722 11.7087C3.48762 15.0188 2.71552 18.8703 3.21098 22.6645C3.70644 26.4587 5.44169 29.9828 8.14691 32.689C10.8521 35.3951 14.3757 37.1315 18.1697 37.6282C21.9637 38.125 25.8156 37.3542 29.1262 35.4357C32.4369 33.5172 35.0209 30.5585 36.4765 27.0198C37.932 23.481 38.1774 19.5605 37.1747 15.8678L39.6124 13.4301C40.4271 15.6707 40.8431 18.0366 40.8415 20.4207C40.8415 31.6989 31.6989 40.8415 20.4207 40.8415C9.14258 40.8415 0 31.6989 0 20.4207C0 9.14258 9.14258 0 20.4207 0ZM20.4207 8.17075C21.4552 8.17006 22.4856 8.3004 23.4873 8.55867V11.758C21.5227 11.0629 19.3802 11.0564 17.4114 11.7395C15.4426 12.4226 13.7646 13.7547 12.6526 15.5172C11.5407 17.2797 11.061 19.3679 11.2923 21.4389C11.5235 23.51 12.452 25.4409 13.9253 26.9147C15.3986 28.3886 17.3292 29.3178 19.4001 29.5498C21.4711 29.7818 23.5594 29.3028 25.3223 28.1916C27.0853 27.0803 28.418 25.4027 29.1018 23.4342C29.7856 21.4656 29.7799 19.3231 29.0856 17.3582H32.2849C32.9236 19.832 32.7729 22.4435 31.8539 24.8273C30.9349 27.2111 29.2935 29.2479 27.1596 30.6527C25.0256 32.0575 22.5059 32.7599 19.9529 32.6617C17.4 32.5635 14.9416 31.6695 12.9219 30.1049C10.9022 28.5403 9.42222 26.3834 8.68908 23.936C7.95594 21.4887 8.00633 18.8733 8.83321 16.456C9.66009 14.0387 11.2221 11.9404 13.3006 10.4548C15.379 8.96914 17.87 8.17055 20.4248 8.17075M24.5082 20.4207C24.5079 21.2984 24.2248 22.1526 23.701 22.8567C23.1772 23.5609 22.4404 24.0775 21.5999 24.33C20.7594 24.5826 19.8598 24.5576 19.0346 24.2588C18.2094 23.96 17.5025 23.4033 17.0185 22.6712C16.5345 21.9391 16.2993 21.0705 16.3477 20.1942C16.3961 19.3179 16.7256 18.4805 17.2872 17.8062C17.8489 17.1318 18.6129 16.6564 19.466 16.4503C20.3191 16.2442 21.2159 16.3185 22.0235 16.662L25.5351 13.1504L25.529 6.6395C25.5294 6.23352 25.6909 5.84431 25.9782 5.55742L31.0823 0.45325C31.2965 0.239372 31.5692 0.0937514 31.8661 0.0347791C32.1629 -0.0241932 32.4706 0.00612834 32.7502 0.121914C33.0299 0.2377 33.2689 0.433756 33.4372 0.685321C33.6054 0.936886 33.6954 1.23268 33.6957 1.53533V7.14992H39.3102C39.6129 7.15018 39.9087 7.24013 40.1603 7.40841C40.4118 7.57668 40.6079 7.81573 40.7237 8.09536C40.8395 8.375 40.8698 8.68267 40.8108 8.97953C40.7518 9.27638 40.6062 9.54911 40.3923 9.76325L35.2882 14.8674C35.0013 15.1547 34.6121 15.3162 34.2061 15.3166H27.6932L24.1815 18.8283C24.3897 19.3183 24.5041 19.8552 24.5041 20.4207M33.5711 12.2541L35.6128 10.2124H32.1624C31.7563 10.2124 31.3668 10.0511 31.0796 9.76392C30.7924 9.47676 30.6311 9.08728 30.6311 8.68117V5.23075L28.5915 7.27242V12.1336L28.712 12.2561L33.5711 12.2541Z" fill="url(#paint0_linear_124_957)"/>
<defs>
<linearGradient id="paint0_linear_124_957" x1="-4.70104" y1="33.7098" x2="33.6845" y2="-4.76092" gradientUnits="userSpaceOnUse">
<stop stop-color="#92E9D2"/>
<stop offset="0.5184" stop-color="#DB00FF"/>
<stop offset="1" stop-color="#633F93"/>
</linearGradient>
</defs>
</svg>
